<svg width="512" height="512" viewBox="0 0 512 512" fill="none" xmlns="http://www.w3.org/2000/svg">
<path d="M403.717 229.289V203.396C403.596 197.496 401.167 191.879 396.951 187.749C392.736 183.619 387.069 181.307 381.168 181.307C375.267 181.307 369.601 183.619 365.385 187.749C361.17 191.879 358.741 197.496 358.619 203.396V236.265C345.615 239.26 330.602 242.245 315.56 245.24V128.644C315.427 122.7 312.939 117.052 308.643 112.941C304.348 108.831 298.596 106.594 292.652 106.722H292.537C286.73 106.772 281.174 109.094 277.06 113.193C272.946 117.291 270.601 122.838 270.529 128.644V256.225C269.133 256.173 267.75 256.504 266.529 257.182C252.52 260.168 239.507 263.163 226.436 266.148V167.532C226.436 161.687 224.114 156.082 219.981 151.949C215.848 147.817 210.243 145.495 204.399 145.495C198.554 145.495 192.949 147.817 188.816 151.949C184.683 156.082 182.362 161.687 182.362 167.532V276.1C166.343 279.114 152.296 282.09 138.345 284.08V233.27C138.345 230.375 137.775 227.509 136.667 224.835C135.559 222.16 133.936 219.731 131.889 217.684C129.842 215.637 127.412 214.013 124.738 212.906C122.064 211.798 119.198 211.228 116.303 211.228C113.409 211.228 110.542 211.798 107.868 212.906C105.194 214.013 102.764 215.637 100.717 217.684C98.6706 219.731 97.047 222.16 95.9393 224.835C94.8316 227.509 94.2615 230.375 94.2615 233.27V290.061C44.1687 296.041 15.1177 294.051 12.094 285.047C5.09915 270.09 51.1635 249.135 64.1675 242.207V241.25H63.2106C50.197 246.216 -5.88586 269.134 1.12809 289.094C8.1229 311.026 94.2519 317.006 273.514 273.153C423.745 236.284 492.841 229.308 499.855 243.26C504.869 255.201 467.8 278.138 431.763 294.089C431.391 294.48 431.112 294.949 430.946 295.463C430.78 295.977 430.733 296.521 430.807 297.055C431.763 298.06 432.797 299.055 433.811 298.06C446.815 293.046 514.926 264.196 511.902 240.264C508.926 224.332 472.862 219.347 403.775 229.308L403.717 229.289ZM94.4815 334.173V350.88C94.601 356.583 96.9506 362.013 101.026 366.004C105.102 369.995 110.58 372.231 116.284 372.231C121.989 372.231 127.466 369.995 131.542 366.004C135.618 362.013 137.967 356.583 138.087 350.88V329.255C123.654 331.704 109.097 333.35 94.4815 334.182V334.173ZM182.515 321.848V382.601C182.402 388.384 184.591 393.976 188.601 398.146C192.611 402.315 198.113 404.721 203.896 404.834C209.68 404.947 215.272 402.758 219.441 398.748C223.611 394.738 226.016 389.236 226.129 383.452V312.882C211.782 316.734 197.218 319.728 182.515 321.848Z" fill="#010101"/>
<path d="M273.543 303.179H270.538V345.866C270.747 351.725 273.221 357.274 277.44 361.345C281.658 365.415 287.292 367.69 293.154 367.69C299.017 367.69 304.65 365.415 308.869 361.345C313.087 357.274 315.561 351.725 315.77 345.866V293.237C302.699 296.232 288.643 299.199 273.543 303.179ZM358.562 283.343V309.103C358.725 315.034 361.234 320.659 365.54 324.742C369.846 328.825 375.595 331.033 381.527 330.881H381.661C387.458 330.864 393.017 328.575 397.144 324.505C401.272 320.435 403.639 314.908 403.736 309.112V274.454C390.678 277.414 375.594 280.38 358.485 283.353" fill="#010101"/>
</svg>
